# xmcd
# 
# Track frame offsets:
#     150
#     20945
#     39439
#     60151
# 
# Disc length: 1045
# 
# Revision: 0
# Processed by: cddbd v1.5.2PL0 Copyright (c) Steve Scherf et al.
# Submitted via: fre:ac v1.0.31
# 
DISCID=2a041304
DTITLE=松田聖子 - 真夏の夜の夢
DYEAR=2007
DGENRE=JPop
TTITLE0=真夏の夜の夢／松田聖子×藤井隆
TTITLE1=二人ならば
TTITLE2=真夏の夜の夢(オリジナル・カラオケ)
TTITLE3=二人ならば(オリジナル・カラオケ)
EXTD=
EXTT0=
EXTT1=
EXTT2=
EXTT3=
PLAYORDER=
